M48
; DRILL file {KiCad (5.1.4)-1} date 2020/01/15 0:47:06
; FORMAT={-:-/ absolute / metric / decimal}
; #@! TF.CreationDate,2020-01-15T00:47:06+09:00
; #@! TF.GenerationSoftware,Kicad,Pcbnew,(5.1.4)-1
; #@! TF.FileFunction,Plated,1,2,PTH
FMAT,2
METRIC
T1C0.400
T2C0.600
T3C0.800
T4C1.000
T5C1.300
%
G90
G05
T1
X91.262Y-110.597
X97.79Y-44.45
X100.136Y-31.309
X104.14Y-77.47
X104.14Y-95.25
X109.22Y-59.69
X109.22Y-81.28
X115.57Y-106.68
X121.92Y-109.22
X143.975Y-101.135
X148.59Y-106.68
X151.13Y-49.53
X154.42Y-28.69
X157.48Y-76.2
T2
X123.19Y-60.23
X123.19Y-62.23
T3
X140.97Y-64.85
X140.97Y-69.85
X134.62Y-118.11
X137.16Y-115.57
X139.7Y-118.11
X76.535Y-105.185
X86.695Y-105.185
X107.95Y-88.9
X107.95Y-91.44
X107.95Y-93.98
X107.95Y-96.52
X115.57Y-88.9
X115.57Y-91.44
X115.57Y-93.98
X115.57Y-96.52
X147.32Y-92.71
X147.32Y-95.25
X147.32Y-97.79
X147.32Y-100.33
X154.94Y-92.71
X154.94Y-95.25
X154.94Y-97.79
X154.94Y-100.33
X135.89Y-78.74
X140.89Y-78.74
X146.05Y-62.23
X146.05Y-72.39
X77.47Y-59.69
X77.47Y-62.23
X77.47Y-64.77
X77.47Y-67.31
X77.47Y-69.85
X77.47Y-72.39
X77.47Y-74.93
X77.47Y-77.47
X85.09Y-59.69
X85.09Y-62.23
X85.09Y-64.77
X85.09Y-67.31
X85.09Y-69.85
X85.09Y-72.39
X85.09Y-74.93
X85.09Y-77.47
X76.2Y-110.49
X76.2Y-113.03
X76.2Y-115.57
X76.2Y-118.11
X83.82Y-110.49
X83.82Y-113.03
X83.82Y-115.57
X83.82Y-118.11
X128.27Y-62.23
X128.27Y-64.77
X128.27Y-67.31
X128.27Y-69.85
X135.89Y-62.23
X135.89Y-64.77
X135.89Y-67.31
X135.89Y-69.85
X76.2Y-90.17
X78.74Y-87.63
X81.28Y-90.17
X76.2Y-34.29
X76.2Y-41.91
X91.44Y-34.29
X91.44Y-41.91
X110.49Y-109.22
X110.49Y-119.38
X96.901Y-33.655
X96.901Y-52.705
X98.679Y-33.655
X98.679Y-52.705
X100.457Y-33.655
X100.457Y-52.705
X102.235Y-33.655
X102.235Y-52.705
X104.013Y-33.655
X104.013Y-52.705
X105.791Y-33.655
X105.791Y-52.705
X107.569Y-33.655
X107.569Y-52.705
X109.347Y-33.655
X109.347Y-52.705
X111.125Y-33.655
X111.125Y-52.705
X112.903Y-33.655
X112.903Y-52.705
X114.681Y-33.655
X114.681Y-52.705
X116.459Y-33.655
X116.459Y-52.705
X118.237Y-33.655
X118.237Y-52.705
X120.015Y-33.655
X120.015Y-52.705
X121.793Y-33.655
X121.793Y-52.705
X123.571Y-33.655
X123.571Y-52.705
X125.349Y-33.655
X125.349Y-52.705
X127.127Y-33.655
X127.127Y-52.705
X128.905Y-33.655
X128.905Y-52.705
X130.683Y-33.655
X130.683Y-52.705
X132.461Y-33.655
X132.461Y-52.705
X134.239Y-33.655
X134.239Y-52.705
X136.017Y-33.655
X136.017Y-52.705
X137.795Y-33.655
X137.795Y-52.705
X139.573Y-33.655
X139.573Y-52.705
X141.351Y-33.655
X141.351Y-52.705
X143.129Y-33.655
X143.129Y-52.705
X144.907Y-33.655
X144.907Y-52.705
X146.685Y-33.655
X146.685Y-52.705
X148.463Y-33.655
X148.463Y-52.705
X150.241Y-33.655
X150.241Y-52.705
X152.019Y-33.655
X152.019Y-52.705
X111.76Y-62.23
X111.76Y-64.77
X111.76Y-67.31
X111.76Y-69.85
X111.76Y-72.39
X111.76Y-74.93
X111.76Y-77.47
X111.76Y-80.01
X119.38Y-62.23
X119.38Y-64.77
X119.38Y-67.31
X119.38Y-69.85
X119.38Y-72.39
X119.38Y-74.93
X119.38Y-77.47
X119.38Y-80.01
X92.71Y-59.69
X92.71Y-62.23
X92.71Y-64.77
X92.71Y-67.31
X92.71Y-69.85
X92.71Y-72.39
X92.71Y-74.93
X92.71Y-77.47
X100.33Y-59.69
X100.33Y-62.23
X100.33Y-64.77
X100.33Y-67.31
X100.33Y-69.85
X100.33Y-72.39
X100.33Y-74.93
X100.33Y-77.47
X90.17Y-119.38
X100.33Y-119.38
X92.71Y-90.17
X95.25Y-87.63
X97.79Y-90.17
X90.17Y-115.57
X100.33Y-115.57
X125.73Y-78.74
X130.73Y-78.74
X76.535Y-101.135
X86.695Y-101.135
X119.38Y-118.11
X121.92Y-115.57
X124.46Y-118.11
X105.41Y-105.41
X105.41Y-115.57
T4
X67.31Y-58.42
X67.31Y-60.96
X67.31Y-63.5
X67.31Y-66.04
X67.31Y-68.58
X67.31Y-71.12
X67.31Y-73.66
X67.31Y-76.2
X67.31Y-78.74
X67.31Y-81.28
X67.31Y-83.82
X67.31Y-86.36
T5
X146.41Y-112.74
X149.11Y-113.94
X151.61Y-120.74
X155.71Y-109.54
X156.21Y-116.84
T0
M30
