G04 #@! TF.GenerationSoftware,KiCad,Pcbnew,(5.1.4)-1*
G04 #@! TF.CreationDate,2020-01-15T00:46:40+09:00*
G04 #@! TF.ProjectId,m5fm,6d35666d-2e6b-4696-9361-645f70636258,rev?*
G04 #@! TF.SameCoordinates,Original*
G04 #@! TF.FileFunction,Paste,Top*
G04 #@! TF.FilePolarity,Positive*
%FSLAX46Y46*%
G04 Gerber Fmt 4.6, Leading zero omitted, Abs format (unit mm)*
G04 Created by KiCad (PCBNEW (5.1.4)-1) date 2020-01-15 00:46:40*
%MOMM*%
%LPD*%
G04 APERTURE LIST*
%ADD10C,0.100000*%
%ADD11C,0.950000*%
G04 APERTURE END LIST*
D10*
G36*
X90430779Y-110361144D02*
G01*
X90453834Y-110364563D01*
X90476443Y-110370227D01*
X90498387Y-110378079D01*
X90519457Y-110388044D01*
X90539448Y-110400026D01*
X90558168Y-110413910D01*
X90575438Y-110429562D01*
X90591090Y-110446832D01*
X90604974Y-110465552D01*
X90616956Y-110485543D01*
X90626921Y-110506613D01*
X90634773Y-110528557D01*
X90640437Y-110551166D01*
X90643856Y-110574221D01*
X90645000Y-110597500D01*
X90645000Y-111172500D01*
X90643856Y-111195779D01*
X90640437Y-111218834D01*
X90634773Y-111241443D01*
X90626921Y-111263387D01*
X90616956Y-111284457D01*
X90604974Y-111304448D01*
X90591090Y-111323168D01*
X90575438Y-111340438D01*
X90558168Y-111356090D01*
X90539448Y-111369974D01*
X90519457Y-111381956D01*
X90498387Y-111391921D01*
X90476443Y-111399773D01*
X90453834Y-111405437D01*
X90430779Y-111408856D01*
X90407500Y-111410000D01*
X89932500Y-111410000D01*
X89909221Y-111408856D01*
X89886166Y-111405437D01*
X89863557Y-111399773D01*
X89841613Y-111391921D01*
X89820543Y-111381956D01*
X89800552Y-111369974D01*
X89781832Y-111356090D01*
X89764562Y-111340438D01*
X89748910Y-111323168D01*
X89735026Y-111304448D01*
X89723044Y-111284457D01*
X89713079Y-111263387D01*
X89705227Y-111241443D01*
X89699563Y-111218834D01*
X89696144Y-111195779D01*
X89695000Y-111172500D01*
X89695000Y-110597500D01*
X89696144Y-110574221D01*
X89699563Y-110551166D01*
X89705227Y-110528557D01*
X89713079Y-110506613D01*
X89723044Y-110485543D01*
X89735026Y-110465552D01*
X89748910Y-110446832D01*
X89764562Y-110429562D01*
X89781832Y-110413910D01*
X89800552Y-110400026D01*
X89820543Y-110388044D01*
X89841613Y-110378079D01*
X89863557Y-110370227D01*
X89886166Y-110364563D01*
X89909221Y-110361144D01*
X89932500Y-110360000D01*
X90407500Y-110360000D01*
X90430779Y-110361144D01*
X90430779Y-110361144D01*
G37*
D11*
X90170000Y-110885000D03*
D10*
G36*
X90430779Y-112111144D02*
G01*
X90453834Y-112114563D01*
X90476443Y-112120227D01*
X90498387Y-112128079D01*
X90519457Y-112138044D01*
X90539448Y-112150026D01*
X90558168Y-112163910D01*
X90575438Y-112179562D01*
X90591090Y-112196832D01*
X90604974Y-112215552D01*
X90616956Y-112235543D01*
X90626921Y-112256613D01*
X90634773Y-112278557D01*
X90640437Y-112301166D01*
X90643856Y-112324221D01*
X90645000Y-112347500D01*
X90645000Y-112922500D01*
X90643856Y-112945779D01*
X90640437Y-112968834D01*
X90634773Y-112991443D01*
X90626921Y-113013387D01*
X90616956Y-113034457D01*
X90604974Y-113054448D01*
X90591090Y-113073168D01*
X90575438Y-113090438D01*
X90558168Y-113106090D01*
X90539448Y-113119974D01*
X90519457Y-113131956D01*
X90498387Y-113141921D01*
X90476443Y-113149773D01*
X90453834Y-113155437D01*
X90430779Y-113158856D01*
X90407500Y-113160000D01*
X89932500Y-113160000D01*
X89909221Y-113158856D01*
X89886166Y-113155437D01*
X89863557Y-113149773D01*
X89841613Y-113141921D01*
X89820543Y-113131956D01*
X89800552Y-113119974D01*
X89781832Y-113106090D01*
X89764562Y-113090438D01*
X89748910Y-113073168D01*
X89735026Y-113054448D01*
X89723044Y-113034457D01*
X89713079Y-113013387D01*
X89705227Y-112991443D01*
X89699563Y-112968834D01*
X89696144Y-112945779D01*
X89695000Y-112922500D01*
X89695000Y-112347500D01*
X89696144Y-112324221D01*
X89699563Y-112301166D01*
X89705227Y-112278557D01*
X89713079Y-112256613D01*
X89723044Y-112235543D01*
X89735026Y-112215552D01*
X89748910Y-112196832D01*
X89764562Y-112179562D01*
X89781832Y-112163910D01*
X89800552Y-112150026D01*
X89820543Y-112138044D01*
X89841613Y-112128079D01*
X89863557Y-112120227D01*
X89886166Y-112114563D01*
X89909221Y-112111144D01*
X89932500Y-112110000D01*
X90407500Y-112110000D01*
X90430779Y-112111144D01*
X90430779Y-112111144D01*
G37*
D11*
X90170000Y-112635000D03*
D10*
G36*
X87890779Y-117191144D02*
G01*
X87913834Y-117194563D01*
X87936443Y-117200227D01*
X87958387Y-117208079D01*
X87979457Y-117218044D01*
X87999448Y-117230026D01*
X88018168Y-117243910D01*
X88035438Y-117259562D01*
X88051090Y-117276832D01*
X88064974Y-117295552D01*
X88076956Y-117315543D01*
X88086921Y-117336613D01*
X88094773Y-117358557D01*
X88100437Y-117381166D01*
X88103856Y-117404221D01*
X88105000Y-117427500D01*
X88105000Y-118002500D01*
X88103856Y-118025779D01*
X88100437Y-118048834D01*
X88094773Y-118071443D01*
X88086921Y-118093387D01*
X88076956Y-118114457D01*
X88064974Y-118134448D01*
X88051090Y-118153168D01*
X88035438Y-118170438D01*
X88018168Y-118186090D01*
X87999448Y-118199974D01*
X87979457Y-118211956D01*
X87958387Y-118221921D01*
X87936443Y-118229773D01*
X87913834Y-118235437D01*
X87890779Y-118238856D01*
X87867500Y-118240000D01*
X87392500Y-118240000D01*
X87369221Y-118238856D01*
X87346166Y-118235437D01*
X87323557Y-118229773D01*
X87301613Y-118221921D01*
X87280543Y-118211956D01*
X87260552Y-118199974D01*
X87241832Y-118186090D01*
X87224562Y-118170438D01*
X87208910Y-118153168D01*
X87195026Y-118134448D01*
X87183044Y-118114457D01*
X87173079Y-118093387D01*
X87165227Y-118071443D01*
X87159563Y-118048834D01*
X87156144Y-118025779D01*
X87155000Y-118002500D01*
X87155000Y-117427500D01*
X87156144Y-117404221D01*
X87159563Y-117381166D01*
X87165227Y-117358557D01*
X87173079Y-117336613D01*
X87183044Y-117315543D01*
X87195026Y-117295552D01*
X87208910Y-117276832D01*
X87224562Y-117259562D01*
X87241832Y-117243910D01*
X87260552Y-117230026D01*
X87280543Y-117218044D01*
X87301613Y-117208079D01*
X87323557Y-117200227D01*
X87346166Y-117194563D01*
X87369221Y-117191144D01*
X87392500Y-117190000D01*
X87867500Y-117190000D01*
X87890779Y-117191144D01*
X87890779Y-117191144D01*
G37*
D11*
X87630000Y-117715000D03*
D10*
G36*
X87890779Y-115441144D02*
G01*
X87913834Y-115444563D01*
X87936443Y-115450227D01*
X87958387Y-115458079D01*
X87979457Y-115468044D01*
X87999448Y-115480026D01*
X88018168Y-115493910D01*
X88035438Y-115509562D01*
X88051090Y-115526832D01*
X88064974Y-115545552D01*
X88076956Y-115565543D01*
X88086921Y-115586613D01*
X88094773Y-115608557D01*
X88100437Y-115631166D01*
X88103856Y-115654221D01*
X88105000Y-115677500D01*
X88105000Y-116252500D01*
X88103856Y-116275779D01*
X88100437Y-116298834D01*
X88094773Y-116321443D01*
X88086921Y-116343387D01*
X88076956Y-116364457D01*
X88064974Y-116384448D01*
X88051090Y-116403168D01*
X88035438Y-116420438D01*
X88018168Y-116436090D01*
X87999448Y-116449974D01*
X87979457Y-116461956D01*
X87958387Y-116471921D01*
X87936443Y-116479773D01*
X87913834Y-116485437D01*
X87890779Y-116488856D01*
X87867500Y-116490000D01*
X87392500Y-116490000D01*
X87369221Y-116488856D01*
X87346166Y-116485437D01*
X87323557Y-116479773D01*
X87301613Y-116471921D01*
X87280543Y-116461956D01*
X87260552Y-116449974D01*
X87241832Y-116436090D01*
X87224562Y-116420438D01*
X87208910Y-116403168D01*
X87195026Y-116384448D01*
X87183044Y-116364457D01*
X87173079Y-116343387D01*
X87165227Y-116321443D01*
X87159563Y-116298834D01*
X87156144Y-116275779D01*
X87155000Y-116252500D01*
X87155000Y-115677500D01*
X87156144Y-115654221D01*
X87159563Y-115631166D01*
X87165227Y-115608557D01*
X87173079Y-115586613D01*
X87183044Y-115565543D01*
X87195026Y-115545552D01*
X87208910Y-115526832D01*
X87224562Y-115509562D01*
X87241832Y-115493910D01*
X87260552Y-115480026D01*
X87280543Y-115468044D01*
X87301613Y-115458079D01*
X87323557Y-115450227D01*
X87346166Y-115444563D01*
X87369221Y-115441144D01*
X87392500Y-115440000D01*
X87867500Y-115440000D01*
X87890779Y-115441144D01*
X87890779Y-115441144D01*
G37*
D11*
X87630000Y-115965000D03*
D10*
G36*
X106595779Y-30006144D02*
G01*
X106618834Y-30009563D01*
X106641443Y-30015227D01*
X106663387Y-30023079D01*
X106684457Y-30033044D01*
X106704448Y-30045026D01*
X106723168Y-30058910D01*
X106740438Y-30074562D01*
X106756090Y-30091832D01*
X106769974Y-30110552D01*
X106781956Y-30130543D01*
X106791921Y-30151613D01*
X106799773Y-30173557D01*
X106805437Y-30196166D01*
X106808856Y-30219221D01*
X106810000Y-30242500D01*
X106810000Y-30717500D01*
X106808856Y-30740779D01*
X106805437Y-30763834D01*
X106799773Y-30786443D01*
X106791921Y-30808387D01*
X106781956Y-30829457D01*
X106769974Y-30849448D01*
X106756090Y-30868168D01*
X106740438Y-30885438D01*
X106723168Y-30901090D01*
X106704448Y-30914974D01*
X106684457Y-30926956D01*
X106663387Y-30936921D01*
X106641443Y-30944773D01*
X106618834Y-30950437D01*
X106595779Y-30953856D01*
X106572500Y-30955000D01*
X105997500Y-30955000D01*
X105974221Y-30953856D01*
X105951166Y-30950437D01*
X105928557Y-30944773D01*
X105906613Y-30936921D01*
X105885543Y-30926956D01*
X105865552Y-30914974D01*
X105846832Y-30901090D01*
X105829562Y-30885438D01*
X105813910Y-30868168D01*
X105800026Y-30849448D01*
X105788044Y-30829457D01*
X105778079Y-30808387D01*
X105770227Y-30786443D01*
X105764563Y-30763834D01*
X105761144Y-30740779D01*
X105760000Y-30717500D01*
X105760000Y-30242500D01*
X105761144Y-30219221D01*
X105764563Y-30196166D01*
X105770227Y-30173557D01*
X105778079Y-30151613D01*
X105788044Y-30130543D01*
X105800026Y-30110552D01*
X105813910Y-30091832D01*
X105829562Y-30074562D01*
X105846832Y-30058910D01*
X105865552Y-30045026D01*
X105885543Y-30033044D01*
X105906613Y-30023079D01*
X105928557Y-30015227D01*
X105951166Y-30009563D01*
X105974221Y-30006144D01*
X105997500Y-30005000D01*
X106572500Y-30005000D01*
X106595779Y-30006144D01*
X106595779Y-30006144D01*
G37*
D11*
X106285000Y-30480000D03*
D10*
G36*
X104845779Y-30006144D02*
G01*
X104868834Y-30009563D01*
X104891443Y-30015227D01*
X104913387Y-30023079D01*
X104934457Y-30033044D01*
X104954448Y-30045026D01*
X104973168Y-30058910D01*
X104990438Y-30074562D01*
X105006090Y-30091832D01*
X105019974Y-30110552D01*
X105031956Y-30130543D01*
X105041921Y-30151613D01*
X105049773Y-30173557D01*
X105055437Y-30196166D01*
X105058856Y-30219221D01*
X105060000Y-30242500D01*
X105060000Y-30717500D01*
X105058856Y-30740779D01*
X105055437Y-30763834D01*
X105049773Y-30786443D01*
X105041921Y-30808387D01*
X105031956Y-30829457D01*
X105019974Y-30849448D01*
X105006090Y-30868168D01*
X104990438Y-30885438D01*
X104973168Y-30901090D01*
X104954448Y-30914974D01*
X104934457Y-30926956D01*
X104913387Y-30936921D01*
X104891443Y-30944773D01*
X104868834Y-30950437D01*
X104845779Y-30953856D01*
X104822500Y-30955000D01*
X104247500Y-30955000D01*
X104224221Y-30953856D01*
X104201166Y-30950437D01*
X104178557Y-30944773D01*
X104156613Y-30936921D01*
X104135543Y-30926956D01*
X104115552Y-30914974D01*
X104096832Y-30901090D01*
X104079562Y-30885438D01*
X104063910Y-30868168D01*
X104050026Y-30849448D01*
X104038044Y-30829457D01*
X104028079Y-30808387D01*
X104020227Y-30786443D01*
X104014563Y-30763834D01*
X104011144Y-30740779D01*
X104010000Y-30717500D01*
X104010000Y-30242500D01*
X104011144Y-30219221D01*
X104014563Y-30196166D01*
X104020227Y-30173557D01*
X104028079Y-30151613D01*
X104038044Y-30130543D01*
X104050026Y-30110552D01*
X104063910Y-30091832D01*
X104079562Y-30074562D01*
X104096832Y-30058910D01*
X104115552Y-30045026D01*
X104135543Y-30033044D01*
X104156613Y-30023079D01*
X104178557Y-30015227D01*
X104201166Y-30009563D01*
X104224221Y-30006144D01*
X104247500Y-30005000D01*
X104822500Y-30005000D01*
X104845779Y-30006144D01*
X104845779Y-30006144D01*
G37*
D11*
X104535000Y-30480000D03*
D10*
G36*
X107385779Y-74456144D02*
G01*
X107408834Y-74459563D01*
X107431443Y-74465227D01*
X107453387Y-74473079D01*
X107474457Y-74483044D01*
X107494448Y-74495026D01*
X107513168Y-74508910D01*
X107530438Y-74524562D01*
X107546090Y-74541832D01*
X107559974Y-74560552D01*
X107571956Y-74580543D01*
X107581921Y-74601613D01*
X107589773Y-74623557D01*
X107595437Y-74646166D01*
X107598856Y-74669221D01*
X107600000Y-74692500D01*
X107600000Y-75167500D01*
X107598856Y-75190779D01*
X107595437Y-75213834D01*
X107589773Y-75236443D01*
X107581921Y-75258387D01*
X107571956Y-75279457D01*
X107559974Y-75299448D01*
X107546090Y-75318168D01*
X107530438Y-75335438D01*
X107513168Y-75351090D01*
X107494448Y-75364974D01*
X107474457Y-75376956D01*
X107453387Y-75386921D01*
X107431443Y-75394773D01*
X107408834Y-75400437D01*
X107385779Y-75403856D01*
X107362500Y-75405000D01*
X106787500Y-75405000D01*
X106764221Y-75403856D01*
X106741166Y-75400437D01*
X106718557Y-75394773D01*
X106696613Y-75386921D01*
X106675543Y-75376956D01*
X106655552Y-75364974D01*
X106636832Y-75351090D01*
X106619562Y-75335438D01*
X106603910Y-75318168D01*
X106590026Y-75299448D01*
X106578044Y-75279457D01*
X106568079Y-75258387D01*
X106560227Y-75236443D01*
X106554563Y-75213834D01*
X106551144Y-75190779D01*
X106550000Y-75167500D01*
X106550000Y-74692500D01*
X106551144Y-74669221D01*
X106554563Y-74646166D01*
X106560227Y-74623557D01*
X106568079Y-74601613D01*
X106578044Y-74580543D01*
X106590026Y-74560552D01*
X106603910Y-74541832D01*
X106619562Y-74524562D01*
X106636832Y-74508910D01*
X106655552Y-74495026D01*
X106675543Y-74483044D01*
X106696613Y-74473079D01*
X106718557Y-74465227D01*
X106741166Y-74459563D01*
X106764221Y-74456144D01*
X106787500Y-74455000D01*
X107362500Y-74455000D01*
X107385779Y-74456144D01*
X107385779Y-74456144D01*
G37*
D11*
X107075000Y-74930000D03*
D10*
G36*
X109135779Y-74456144D02*
G01*
X109158834Y-74459563D01*
X109181443Y-74465227D01*
X109203387Y-74473079D01*
X109224457Y-74483044D01*
X109244448Y-74495026D01*
X109263168Y-74508910D01*
X109280438Y-74524562D01*
X109296090Y-74541832D01*
X109309974Y-74560552D01*
X109321956Y-74580543D01*
X109331921Y-74601613D01*
X109339773Y-74623557D01*
X109345437Y-74646166D01*
X109348856Y-74669221D01*
X109350000Y-74692500D01*
X109350000Y-75167500D01*
X109348856Y-75190779D01*
X109345437Y-75213834D01*
X109339773Y-75236443D01*
X109331921Y-75258387D01*
X109321956Y-75279457D01*
X109309974Y-75299448D01*
X109296090Y-75318168D01*
X109280438Y-75335438D01*
X109263168Y-75351090D01*
X109244448Y-75364974D01*
X109224457Y-75376956D01*
X109203387Y-75386921D01*
X109181443Y-75394773D01*
X109158834Y-75400437D01*
X109135779Y-75403856D01*
X109112500Y-75405000D01*
X108537500Y-75405000D01*
X108514221Y-75403856D01*
X108491166Y-75400437D01*
X108468557Y-75394773D01*
X108446613Y-75386921D01*
X108425543Y-75376956D01*
X108405552Y-75364974D01*
X108386832Y-75351090D01*
X108369562Y-75335438D01*
X108353910Y-75318168D01*
X108340026Y-75299448D01*
X108328044Y-75279457D01*
X108318079Y-75258387D01*
X108310227Y-75236443D01*
X108304563Y-75213834D01*
X108301144Y-75190779D01*
X108300000Y-75167500D01*
X108300000Y-74692500D01*
X108301144Y-74669221D01*
X108304563Y-74646166D01*
X108310227Y-74623557D01*
X108318079Y-74601613D01*
X108328044Y-74580543D01*
X108340026Y-74560552D01*
X108353910Y-74541832D01*
X108369562Y-74524562D01*
X108386832Y-74508910D01*
X108405552Y-74495026D01*
X108425543Y-74483044D01*
X108446613Y-74473079D01*
X108468557Y-74465227D01*
X108491166Y-74459563D01*
X108514221Y-74456144D01*
X108537500Y-74455000D01*
X109112500Y-74455000D01*
X109135779Y-74456144D01*
X109135779Y-74456144D01*
G37*
D11*
X108825000Y-74930000D03*
M02*
